<svg width="25" height="25" viewBox="0 0 25 25" fill="none" xmlns="http://www.w3.org/2000/svg">
<path d="M14.648 18.04H4.92L3.128 23H0.0559998L8.12 0.823997H11.48L19.512 23H16.44L14.648 18.04ZM13.816 15.672L9.784 4.408L5.752 15.672H13.816Z" fill="#205EFF"/>
<path d="M24.1591 12H22.0455C21.9205 11.392 21.7017 10.858 21.3892 10.3977C21.0824 9.9375 20.7074 9.55113 20.2642 9.23863C19.8267 8.92045 19.3409 8.68182 18.8068 8.52273C18.2727 8.36363 17.7159 8.28409 17.1364 8.28409C16.0795 8.28409 15.1222 8.55113 14.2642 9.08523C13.4119 9.61932 12.733 10.4062 12.2273 11.446C11.7273 12.4858 11.4773 13.7614 11.4773 15.2727C11.4773 16.7841 11.7273 18.0597 12.2273 19.0994C12.733 20.1392 13.4119 20.9261 14.2642 21.4602C15.1222 21.9943 16.0795 22.2614 17.1364 22.2614C17.7159 22.2614 18.2727 22.1818 18.8068 22.0227C19.3409 21.8636 19.8267 21.6278 20.2642 21.3153C20.7074 20.9972 21.0824 20.608 21.3892 20.1477C21.7017 19.6818 21.9205 19.1477 22.0455 18.5455H24.1591C24 19.4375 23.7102 20.2358 23.2898 20.9403C22.8693 21.6449 22.3466 22.2443 21.7216 22.7386C21.0966 23.2273 20.3949 23.5994 19.6165 23.8551C18.8438 24.1108 18.017 24.2386 17.1364 24.2386C15.6477 24.2386 14.3239 23.875 13.1648 23.1477C12.0057 22.4205 11.0937 21.3864 10.429 20.0455C9.7642 18.7045 9.43182 17.1136 9.43182 15.2727C9.43182 13.4318 9.7642 11.8409 10.429 10.5C11.0937 9.15909 12.0057 8.125 13.1648 7.39773C14.3239 6.67045 15.6477 6.30682 17.1364 6.30682C18.017 6.30682 18.8438 6.43466 19.6165 6.69034C20.3949 6.94602 21.0966 7.32102 21.7216 7.81534C22.3466 8.30397 22.8693 8.90057 23.2898 9.60511C23.7102 10.304 24 11.1023 24.1591 12Z" fill="black"/>
</svg>
